<mxfile host="65bd71144e">
    <diagram id="HslvZqu6cq_CqOU2x_VP" name="Page-1">
        <mxGraphModel dx="592" dy="604" grid="1" gridSize="10" guides="1" tooltips="1" connect="1" arrows="1" fold="1" page="1" pageScale="1" pageWidth="827" pageHeight="1169" math="0" shadow="0">
            <root>
                <mxCell id="0"/>
                <mxCell id="1" parent="0"/>
                <mxCell id="9iBgaMK9nyyAI3Br-PEt-1" value="&amp;nbsp; II. Network-based analysis" style="rounded=0;whiteSpace=wrap;html=1;verticalAlign=top;align=left;fontStyle=1;fillColor=none;" parent="1" vertex="1">
                    <mxGeometry x="39" y="450" width="750" height="370" as="geometry"/>
                </mxCell>
                <mxCell id="9iBgaMK9nyyAI3Br-PEt-2" value="&amp;nbsp; I. Data Preparation" style="rounded=0;whiteSpace=wrap;html=1;verticalAlign=top;align=left;fontStyle=1;fillColor=none;" parent="1" vertex="1">
                    <mxGeometry x="39" y="40" width="750" height="390" as="geometry"/>
                </mxCell>
                <mxCell id="9iBgaMK9nyyAI3Br-PEt-3" value="1.1 Data Preparation" style="rounded=0;whiteSpace=wrap;html=1;verticalAlign=top;align=left;fillColor=none;" parent="1" vertex="1">
                    <mxGeometry x="63" y="70" width="176" height="210" as="geometry"/>
                </mxCell>
                <mxCell id="9iBgaMK9nyyAI3Br-PEt-4" value="&amp;nbsp; 1.2 floods data preparation" style="rounded=0;whiteSpace=wrap;html=1;verticalAlign=top;align=left;fontStyle=1;fillColor=none;" parent="1" vertex="1">
                    <mxGeometry x="349" y="63" width="390" height="147" as="geometry"/>
                </mxCell>
                <mxCell id="9iBgaMK9nyyAI3Br-PEt-5" style="edgeStyle=orthogonalEdgeStyle;rounded=0;orthogonalLoop=1;jettySize=auto;html=1;exitX=1;exitY=0.5;exitDx=0;exitDy=0;entryX=0.5;entryY=0;entryDx=0;entryDy=0;strokeColor=#737373;strokeWidth=2;" parent="1" source="9iBgaMK9nyyAI3Br-PEt-6" target="9iBgaMK9nyyAI3Br-PEt-24" edge="1">
                    <mxGeometry relative="1" as="geometry">
                        <mxPoint x="379" y="490" as="targetPoint"/>
                        <Array as="points">
                            <mxPoint x="229" y="129"/>
                            <mxPoint x="229" y="470"/>
                            <mxPoint x="404" y="470"/>
                        </Array>
                    </mxGeometry>
                </mxCell>
                <mxCell id="9iBgaMK9nyyAI3Br-PEt-6" value="Boundaries" style="rounded=0;whiteSpace=wrap;html=1;verticalAlign=middle;align=center;fillColor=#dae8fc;strokeColor=#6c8ebf;fontColor=#121212;" parent="1" vertex="1">
                    <mxGeometry x="89" y="109" width="120" height="40" as="geometry"/>
                </mxCell>
                <mxCell id="9iBgaMK9nyyAI3Br-PEt-7" style="edgeStyle=orthogonalEdgeStyle;rounded=0;orthogonalLoop=1;jettySize=auto;html=1;exitX=1;exitY=0.5;exitDx=0;exitDy=0;entryX=0.5;entryY=0;entryDx=0;entryDy=0;strokeColor=#737373;strokeWidth=2;" parent="1" source="9iBgaMK9nyyAI3Br-PEt-8" target="9iBgaMK9nyyAI3Br-PEt-24" edge="1">
                    <mxGeometry relative="1" as="geometry">
                        <mxPoint x="379" y="490" as="targetPoint"/>
                        <Array as="points">
                            <mxPoint x="229" y="179"/>
                            <mxPoint x="229" y="470"/>
                            <mxPoint x="404" y="470"/>
                        </Array>
                    </mxGeometry>
                </mxCell>
                <mxCell id="9iBgaMK9nyyAI3Br-PEt-8" value="Health facilities" style="rounded=0;whiteSpace=wrap;html=1;verticalAlign=middle;align=center;fillColor=#dae8fc;strokeColor=#6c8ebf;fontColor=#121212;" parent="1" vertex="1">
                    <mxGeometry x="89" y="159" width="120" height="40" as="geometry"/>
                </mxCell>
                <mxCell id="9iBgaMK9nyyAI3Br-PEt-9" style="edgeStyle=orthogonalEdgeStyle;rounded=0;orthogonalLoop=1;jettySize=auto;html=1;exitX=0.5;exitY=1;exitDx=0;exitDy=0;entryX=0;entryY=0.5;entryDx=0;entryDy=0;strokeColor=#737373;strokeWidth=2;" parent="1" source="9iBgaMK9nyyAI3Br-PEt-11" target="9iBgaMK9nyyAI3Br-PEt-27" edge="1">
                    <mxGeometry relative="1" as="geometry"/>
                </mxCell>
                <mxCell id="9iBgaMK9nyyAI3Br-PEt-10" style="edgeStyle=orthogonalEdgeStyle;rounded=0;orthogonalLoop=1;jettySize=auto;html=1;exitX=0.5;exitY=1;exitDx=0;exitDy=0;entryX=0.5;entryY=0;entryDx=0;entryDy=0;strokeColor=#737373;strokeWidth=2;" parent="1" source="9iBgaMK9nyyAI3Br-PEt-11" target="9iBgaMK9nyyAI3Br-PEt-32" edge="1">
                    <mxGeometry relative="1" as="geometry">
                        <Array as="points">
                            <mxPoint x="149" y="730"/>
                            <mxPoint x="403" y="730"/>
                        </Array>
                    </mxGeometry>
                </mxCell>
                <mxCell id="9iBgaMK9nyyAI3Br-PEt-11" value="Population" style="rounded=0;whiteSpace=wrap;html=1;verticalAlign=middle;align=center;fillColor=#dae8fc;strokeColor=#6c8ebf;fontColor=#121212;" parent="1" vertex="1">
                    <mxGeometry x="89" y="209" width="120" height="40" as="geometry"/>
                </mxCell>
                <mxCell id="9iBgaMK9nyyAI3Br-PEt-12" style="edgeStyle=orthogonalEdgeStyle;rounded=0;orthogonalLoop=1;jettySize=auto;html=1;entryX=0.5;entryY=0;entryDx=0;entryDy=0;strokeColor=#737373;strokeWidth=2;" parent="1" source="9iBgaMK9nyyAI3Br-PEt-13" target="9iBgaMK9nyyAI3Br-PEt-22" edge="1">
                    <mxGeometry relative="1" as="geometry">
                        <Array as="points">
                            <mxPoint x="439" y="140"/>
                            <mxPoint x="539" y="140"/>
                        </Array>
                    </mxGeometry>
                </mxCell>
                <mxCell id="9iBgaMK9nyyAI3Br-PEt-13" value="UNOSAT image" style="rounded=0;whiteSpace=wrap;html=1;verticalAlign=middle;align=center;fillColor=#dae8fc;strokeColor=#6c8ebf;fontColor=#121212;" parent="1" vertex="1">
                    <mxGeometry x="379" y="93" width="120" height="40" as="geometry"/>
                </mxCell>
                <mxCell id="9iBgaMK9nyyAI3Br-PEt-14" style="edgeStyle=orthogonalEdgeStyle;rounded=0;orthogonalLoop=1;jettySize=auto;html=1;exitX=0.5;exitY=1;exitDx=0;exitDy=0;strokeColor=#737373;strokeWidth=2;" parent="1" source="9iBgaMK9nyyAI3Br-PEt-15" edge="1">
                    <mxGeometry relative="1" as="geometry">
                        <mxPoint x="539" y="160" as="targetPoint"/>
                        <Array as="points">
                            <mxPoint x="619" y="140"/>
                            <mxPoint x="539" y="140"/>
                        </Array>
                    </mxGeometry>
                </mxCell>
                <mxCell id="9iBgaMK9nyyAI3Br-PEt-15" value="WFP/ARC images" style="rounded=0;whiteSpace=wrap;html=1;verticalAlign=middle;align=center;fillColor=#dae8fc;strokeColor=#6c8ebf;fontColor=#121212;" parent="1" vertex="1">
                    <mxGeometry x="559" y="93" width="120" height="40" as="geometry"/>
                </mxCell>
                <mxCell id="9iBgaMK9nyyAI3Br-PEt-16" value="&amp;nbsp; 2. Create impacted pbf" style="rounded=0;whiteSpace=wrap;html=1;verticalAlign=top;align=left;fontStyle=1;fillColor=none;" parent="1" vertex="1">
                    <mxGeometry x="349" y="230" width="390" height="170" as="geometry"/>
                </mxCell>
                <mxCell id="9iBgaMK9nyyAI3Br-PEt-17" style="edgeStyle=orthogonalEdgeStyle;rounded=0;orthogonalLoop=1;jettySize=auto;html=1;exitX=0.5;exitY=1;exitDx=0;exitDy=0;entryX=0.5;entryY=0;entryDx=0;entryDy=0;strokeColor=#737373;strokeWidth=2;" parent="1" source="9iBgaMK9nyyAI3Br-PEt-18" target="9iBgaMK9nyyAI3Br-PEt-20" edge="1">
                    <mxGeometry relative="1" as="geometry"/>
                </mxCell>
                <mxCell id="9iBgaMK9nyyAI3Br-PEt-18" value="OSM extract" style="rounded=0;whiteSpace=wrap;html=1;verticalAlign=middle;align=center;fillColor=#dae8fc;strokeColor=#6c8ebf;fontColor=#121212;" parent="1" vertex="1">
                    <mxGeometry x="379" y="260" width="120" height="40" as="geometry"/>
                </mxCell>
                <mxCell id="9iBgaMK9nyyAI3Br-PEt-19" style="edgeStyle=orthogonalEdgeStyle;rounded=0;orthogonalLoop=1;jettySize=auto;html=1;exitX=0.5;exitY=1;exitDx=0;exitDy=0;entryX=0.5;entryY=0;entryDx=0;entryDy=0;strokeColor=#737373;strokeWidth=2;" parent="1" source="9iBgaMK9nyyAI3Br-PEt-20" target="9iBgaMK9nyyAI3Br-PEt-24" edge="1">
                    <mxGeometry relative="1" as="geometry">
                        <Array as="points">
                            <mxPoint x="539" y="470"/>
                            <mxPoint x="404" y="470"/>
                        </Array>
                    </mxGeometry>
                </mxCell>
                <mxCell id="9iBgaMK9nyyAI3Br-PEt-20" value="OSM extract flooded" style="rounded=0;whiteSpace=wrap;html=1;verticalAlign=middle;align=center;fillColor=#ffe6cc;strokeColor=#d79b00;fontColor=#121212;" parent="1" vertex="1">
                    <mxGeometry x="479" y="340" width="120" height="40" as="geometry"/>
                </mxCell>
                <mxCell id="9iBgaMK9nyyAI3Br-PEt-21" style="edgeStyle=orthogonalEdgeStyle;rounded=0;orthogonalLoop=1;jettySize=auto;html=1;exitX=0.5;exitY=1;exitDx=0;exitDy=0;entryX=0.5;entryY=0;entryDx=0;entryDy=0;strokeColor=#737373;strokeWidth=2;" parent="1" source="9iBgaMK9nyyAI3Br-PEt-22" target="9iBgaMK9nyyAI3Br-PEt-20" edge="1">
                    <mxGeometry relative="1" as="geometry"/>
                </mxCell>
                <mxCell id="9iBgaMK9nyyAI3Br-PEt-22" value="Floods extent" style="rounded=0;whiteSpace=wrap;html=1;verticalAlign=middle;align=center;fillColor=#ffe6cc;strokeColor=#d79b00;fontColor=#121212;" parent="1" vertex="1">
                    <mxGeometry x="479" y="158" width="120" height="40" as="geometry"/>
                </mxCell>
                <mxCell id="9iBgaMK9nyyAI3Br-PEt-23" style="edgeStyle=orthogonalEdgeStyle;rounded=0;orthogonalLoop=1;jettySize=auto;html=1;exitX=0.5;exitY=1;exitDx=0;exitDy=0;entryX=0.5;entryY=0;entryDx=0;entryDy=0;strokeColor=#737373;strokeWidth=2;" parent="1" source="9iBgaMK9nyyAI3Br-PEt-24" target="9iBgaMK9nyyAI3Br-PEt-27" edge="1">
                    <mxGeometry relative="1" as="geometry"/>
                </mxCell>
                <mxCell id="9iBgaMK9nyyAI3Br-PEt-24" value="Process Isochrones" style="rounded=0;whiteSpace=wrap;html=1;align=center;verticalAlign=middle;fillColor=#ffe6cc;strokeColor=#d79b00;fontColor=#121212;" parent="1" vertex="1">
                    <mxGeometry x="228" y="490" width="350" height="60" as="geometry"/>
                </mxCell>
                <mxCell id="9iBgaMK9nyyAI3Br-PEt-25" style="edgeStyle=orthogonalEdgeStyle;rounded=0;orthogonalLoop=1;jettySize=auto;html=1;exitX=0.25;exitY=1;exitDx=0;exitDy=0;entryX=0.5;entryY=0;entryDx=0;entryDy=0;strokeColor=#737373;strokeWidth=2;" parent="1" source="9iBgaMK9nyyAI3Br-PEt-27" target="9iBgaMK9nyyAI3Br-PEt-31" edge="1">
                    <mxGeometry relative="1" as="geometry"/>
                </mxCell>
                <mxCell id="9iBgaMK9nyyAI3Br-PEt-26" style="edgeStyle=orthogonalEdgeStyle;rounded=0;orthogonalLoop=1;jettySize=auto;html=1;exitX=0.75;exitY=1;exitDx=0;exitDy=0;strokeColor=#737373;strokeWidth=2;" parent="1" source="9iBgaMK9nyyAI3Br-PEt-27" target="9iBgaMK9nyyAI3Br-PEt-29" edge="1">
                    <mxGeometry relative="1" as="geometry"/>
                </mxCell>
                <mxCell id="9iBgaMK9nyyAI3Br-PEt-27" value="Population count" style="rounded=0;whiteSpace=wrap;html=1;align=center;verticalAlign=middle;fillColor=#ffe6cc;strokeColor=#d79b00;fontColor=#121212;" parent="1" vertex="1">
                    <mxGeometry x="229" y="570" width="350" height="60" as="geometry"/>
                </mxCell>
                <mxCell id="9iBgaMK9nyyAI3Br-PEt-28" style="edgeStyle=orthogonalEdgeStyle;rounded=0;orthogonalLoop=1;jettySize=auto;html=1;exitX=0.5;exitY=1;exitDx=0;exitDy=0;entryX=0.5;entryY=0;entryDx=0;entryDy=0;strokeColor=#737373;strokeWidth=2;" parent="1" source="9iBgaMK9nyyAI3Br-PEt-29" target="9iBgaMK9nyyAI3Br-PEt-32" edge="1">
                    <mxGeometry relative="1" as="geometry">
                        <Array as="points">
                            <mxPoint x="491" y="730"/>
                            <mxPoint x="403" y="730"/>
                        </Array>
                    </mxGeometry>
                </mxCell>
                <mxCell id="9iBgaMK9nyyAI3Br-PEt-29" value="&lt;div&gt;Healthcare access&lt;/div&gt;&lt;div&gt;Normal&lt;br&gt;&lt;/div&gt;" style="rounded=0;whiteSpace=wrap;html=1;verticalAlign=middle;align=center;fillColor=#ffe6cc;strokeColor=#d79b00;fontColor=#121212;" parent="1" vertex="1">
                    <mxGeometry x="431" y="660" width="120" height="40" as="geometry"/>
                </mxCell>
                <mxCell id="9iBgaMK9nyyAI3Br-PEt-30" style="edgeStyle=orthogonalEdgeStyle;rounded=0;orthogonalLoop=1;jettySize=auto;html=1;exitX=0.5;exitY=1;exitDx=0;exitDy=0;entryX=0.5;entryY=0;entryDx=0;entryDy=0;strokeColor=#737373;strokeWidth=2;" parent="1" source="9iBgaMK9nyyAI3Br-PEt-31" target="9iBgaMK9nyyAI3Br-PEt-32" edge="1">
                    <mxGeometry relative="1" as="geometry">
                        <Array as="points">
                            <mxPoint x="319" y="730"/>
                            <mxPoint x="403" y="730"/>
                        </Array>
                    </mxGeometry>
                </mxCell>
                <mxCell id="9iBgaMK9nyyAI3Br-PEt-31" value="&lt;div&gt;Healthcare access&lt;/div&gt;&lt;div&gt;Floods&lt;br&gt;&lt;/div&gt;" style="rounded=0;whiteSpace=wrap;html=1;verticalAlign=middle;align=center;fillColor=#ffe6cc;strokeColor=#d79b00;fontColor=#121212;gradientDirection=west;" parent="1" vertex="1">
                    <mxGeometry x="259" y="660" width="120" height="40" as="geometry"/>
                </mxCell>
                <mxCell id="9iBgaMK9nyyAI3Br-PEt-32" value="Loss of access" style="rounded=0;whiteSpace=wrap;html=1;verticalAlign=middle;align=center;fillColor=#d5e8d4;strokeColor=#82b366;fontColor=#121212;" parent="1" vertex="1">
                    <mxGeometry x="318" y="752" width="170" height="40" as="geometry"/>
                </mxCell>
                <mxCell id="9iBgaMK9nyyAI3Br-PEt-33" value="&amp;nbsp; Legend" style="rounded=0;whiteSpace=wrap;html=1;align=left;verticalAlign=top;" parent="1" vertex="1">
                    <mxGeometry x="60" y="840" width="540" height="90" as="geometry"/>
                </mxCell>
                <mxCell id="9iBgaMK9nyyAI3Br-PEt-34" value="Input" style="rounded=0;whiteSpace=wrap;html=1;verticalAlign=middle;align=center;fillColor=#dae8fc;strokeColor=#6c8ebf;fontColor=#121212;" parent="1" vertex="1">
                    <mxGeometry x="130" y="865" width="120" height="40" as="geometry"/>
                </mxCell>
                <mxCell id="9iBgaMK9nyyAI3Br-PEt-35" value="Processed" style="rounded=0;whiteSpace=wrap;html=1;verticalAlign=middle;align=center;fillColor=#ffe6cc;strokeColor=#d79b00;fontColor=#121212;" parent="1" vertex="1">
                    <mxGeometry x="270" y="865" width="120" height="40" as="geometry"/>
                </mxCell>
                <mxCell id="9iBgaMK9nyyAI3Br-PEt-36" value="Output" style="rounded=0;whiteSpace=wrap;html=1;verticalAlign=middle;align=center;fillColor=#d5e8d4;strokeColor=#82b366;fontColor=#121212;" parent="1" vertex="1">
                    <mxGeometry x="410" y="865" width="120" height="40" as="geometry"/>
                </mxCell>
            </root>
        </mxGraphModel>
    </diagram>
</mxfile>